<svg width="64" height="64" viewBox="0 0 64 64" fill="none" xmlns="http://www.w3.org/2000/svg">
<rect width="64" height="64" rx="6" fill="white"/>
<path d="M29.3333 26.6666L25 31C25.4133 31.16 25.7467 31.36 26.0267 31.52C26.52 31.8266 26.8133 32 27.56 32C28.3067 32 28.6 31.8266 29.0933 31.52C29.7067 31.16 30.5333 30.6666 32.0133 30.6666C33.4933 30.6666 34.32 31.16 34.92 31.52C35.4133 31.8133 35.72 32 36.4533 32C37.1867 32 37.4933 31.8266 37.9867 31.52C38.1467 31.4266 38.3333 31.32 38.5333 31.2133L29.9733 22.6666C27.9067 20.6 26 19.9866 22.6667 20V23.3333C25.0933 23.32 26.52 23.8533 28 25.3333L29.3333 26.6666ZM45.3333 38H45.3067H45.3333ZM23.1333 36.6666C23.8667 36.6666 24.1733 36.8533 24.6667 37.1466C25.2667 37.5066 26.0933 38 27.5733 38C29.0533 38 29.88 37.5066 30.48 37.1466C30.9733 36.84 31.2667 36.6666 32.0133 36.6666C32.7467 36.6666 33.0533 36.8533 33.5467 37.1466C34.1467 37.5066 34.9733 38 36.4533 38C37.9333 38 38.76 37.5066 39.36 37.1466C39.8533 36.84 40.1467 36.6666 40.8933 36.6666C41.6267 36.6666 41.9333 36.8533 42.4267 37.1466C43.0267 37.5066 43.84 37.9866 45.3067 38V35.3333C44.5733 35.3333 44.2667 35.1466 43.7733 34.8533C43.1733 34.4933 42.3467 34 40.8667 34C39.3867 34 38.56 34.4933 37.96 34.8533C37.4667 35.16 37.16 35.3333 36.4267 35.3333C35.6933 35.3333 35.3867 35.1466 34.8933 34.8533C34.2933 34.4933 33.4667 34 31.9867 34C30.5067 34 29.68 34.4933 29.08 34.8533C28.5867 35.16 28.2933 35.3333 27.5467 35.3333C26.8133 35.3333 26.5067 35.1466 26.0133 34.8533C25.4133 34.4933 24.5867 34 23.1067 34C21.6267 34 20.8 34.4933 20.2 34.8533C19.7067 35.16 19.4133 35.3333 18.6667 35.3333V38C20.1467 38 20.9733 37.5066 21.6 37.1466C22.0933 36.84 22.4 36.6666 23.1333 36.6666ZM40.8933 40C39.4133 40 38.5867 40.4933 37.9867 40.8533C37.4933 41.16 37.1867 41.3333 36.4533 41.3333C35.72 41.3333 35.4133 41.1466 34.92 40.8533C34.32 40.4933 33.4933 40 32.0133 40C30.5333 40 29.7067 40.4933 29.0933 40.8533C28.6 41.16 28.3067 41.3333 27.56 41.3333C26.8133 41.3333 26.52 41.16 26.0267 40.8533C25.4267 40.4933 24.6 40 23.12 40C21.64 40 20.8133 40.4933 20.2 40.8533C19.7067 41.16 19.4133 41.3333 18.6667 41.3333V44C20.1467 44 20.9733 43.5066 21.5867 43.1466C22.08 42.84 22.3867 42.6666 23.12 42.6666C23.8533 42.6666 24.16 42.84 24.6533 43.1466C25.2533 43.5066 26.08 44 27.56 44C29.04 44 29.8667 43.5066 30.48 43.1466C30.9733 42.84 31.2667 42.6666 32.0133 42.6666C32.7467 42.6666 33.0533 42.8533 33.5467 43.1466C34.1467 43.5066 34.9733 44 36.4533 44C37.9333 44 38.7467 43.5066 39.36 43.1466C39.8533 42.84 40.1467 42.6666 40.8933 42.6666C41.6267 42.6666 41.9333 42.8533 42.4267 43.1466C43.0267 43.5066 43.8533 44 45.3333 44V41.3333C44.5867 41.3333 44.2933 41.16 43.8 40.8533C43.2 40.4933 42.3733 40 40.8933 40Z" fill="#FF0101"/>
<path d="M38 26.6667C39.8409 26.6667 41.3333 25.1743 41.3333 23.3333C41.3333 21.4924 39.8409 20 38 20C36.159 20 34.6667 21.4924 34.6667 23.3333C34.6667 25.1743 36.159 26.6667 38 26.6667Z" fill="#FF0101"/>
</svg>
